HIERARCHY
ROOT Pelvis
{
	OFFSET 0.000000 0.941512 0.000000
	CHANNELS 6 Xposition Yposition Zposition Zrotation Yrotation Xrotation 
	JOINT Pelvis_L_Hip
	{
		OFFSET 0.000000 0.000000 0.000000
		CHANNELS 3 Zrotation Yrotation Xrotation
		JOINT L_Hip
		{
			OFFSET 0.062321 -0.080322 -0.016990
			CHANNELS 3 Zrotation Yrotation Xrotation
			JOINT L_Knee
			{
				OFFSET 0.093051 -0.381305 -0.029784
				CHANNELS 3 Zrotation Yrotation Xrotation
				JOINT L_Ankle
				{
					OFFSET -0.010371 -0.431000 -0.033614
					CHANNELS 3 Zrotation Yrotation Xrotation
					End Site #name: L_Foot
					{
						OFFSET 0.069299 -0.038670 0.119418
					}
				}
			}
		}
	}
	JOINT Pelvis_R_Hip
	{
		OFFSET 0.000000 0.000000 0.000000
		CHANNELS 3 Zrotation Yrotation Xrotation
		JOINT R_Hip
		{
			OFFSET -0.055334 -0.094904 -0.002373
			CHANNELS 3 Zrotation Yrotation Xrotation
			JOINT R_Knee
			{
				OFFSET -0.064207 -0.384370 -0.019592
				CHANNELS 3 Zrotation Yrotation Xrotation
				JOINT R_Ankle
				{
					OFFSET 0.025418 -0.419734 -0.065953
					CHANNELS 3 Zrotation Yrotation Xrotation
					End Site #name: R_Foot
					{
						OFFSET -0.057233 -0.039888 0.132134
					}
				}
			}
		}
	}
	JOINT Pelvis_Spine1
	{
		OFFSET 0.000000 0.000000 0.000000
		CHANNELS 3 Zrotation Yrotation Xrotation
		JOINT Spine1
		{
			OFFSET -0.005562 0.124093 -0.043360
			CHANNELS 3 Zrotation Yrotation Xrotation
			JOINT Spine2
			{
				OFFSET 0.012244 0.139499 0.029894
				CHANNELS 3 Zrotation Yrotation Xrotation
				JOINT Spine3
				{
					OFFSET -0.002556 0.056561 0.009225
					CHANNELS 3 Zrotation Yrotation Xrotation
					JOINT Spine3_Neck
					{
						OFFSET 0.000000 0.000000 0.000000
						CHANNELS 3 Zrotation Yrotation Xrotation
						JOINT Neck
						{
							OFFSET -0.005205 0.217920 -0.024551
							CHANNELS 3 Zrotation Yrotation Xrotation
							End Site #name: Head
							{
								OFFSET 0.002365 0.091850 0.046637
							}
						}
					}
					JOINT Spine3_L_Collar
					{
						OFFSET 0.000000 0.000000 0.000000
						CHANNELS 3 Zrotation Yrotation Xrotation
						JOINT L_Collar
						{
							OFFSET 0.072225 0.116603 -0.009480
							CHANNELS 3 Zrotation Yrotation Xrotation
							JOINT L_Shoulder
							{
								OFFSET 0.115937 -0.058643 -0.021018
								CHANNELS 3 Zrotation Yrotation Xrotation
								JOINT L_Elbow
								{
									OFFSET 0.021994 -0.254722 -0.024492
									CHANNELS 3 Zrotation Yrotation Xrotation
									End Site #name: L_Wrist
									{
										OFFSET 0.048810 -0.240214 0.103329
									}
								}
							}
						}
					}
					JOINT Spine3_R_Collar
					{
						OFFSET 0.000000 0.000000 0.000000
						CHANNELS 3 Zrotation Yrotation Xrotation
						JOINT R_Collar
						{
							OFFSET -0.073372 0.120704 -0.024611
							CHANNELS 3 Zrotation Yrotation Xrotation
							JOINT R_Shoulder
							{
								OFFSET -0.108089 -0.054969 -0.020504
								CHANNELS 3 Zrotation Yrotation Xrotation
								JOINT R_Elbow
								{
									OFFSET -0.033684 -0.260739 0.009889
									CHANNELS 3 Zrotation Yrotation Xrotation
									End Site #name: R_Wrist
									{
										OFFSET -0.067980 -0.232763 0.118463
									}
								}
							}
						}
					}
				}
			}
		}
	}
}
MOTION
Frames: 8
Frame Time: 0.041667
0.000000 0.908231 0.000000 -7.920294 9.990763 57.647046 0.000000 0.000000 0.000000 8.947712 -9.173407 -55.074583 17.675393 -0.755731 -3.557725 10.552005 38.552569 22.232444 0.000000 0.000000 0.000000 0.421394 14.065505 -87.584344 -11.613452 4.033755 13.299780 27.343211 40.591948 22.153495 0.000000 0.000000 0.000000 5.262353 -10.875168 42.795266 -9.932182 6.463998 30.966427 11.505545 7.162652 -27.699196 0.000000 0.000000 0.000000 -0.346622 -0.267355 15.669945 0.000000 0.000000 0.000000 30.861366 -7.204294 0.215907 -35.697681 7.287628 12.457660 18.750852 5.918654 -102.713217 0.000000 0.000000 0.000000 -37.512744 13.064909 -4.109337 27.130475 -4.163781 16.774881 -25.461941 -6.241857 -104.340256 
0.003039 0.907871 0.000051 -7.920440 9.818841 57.666758 0.000000 0.000000 0.000000 8.646177 -9.219287 -54.839120 17.792955 -0.709700 -3.842597 10.415316 38.376904 22.181953 0.000000 0.000000 0.000000 0.418377 14.112090 -87.475191 -11.834613 4.062910 13.091920 27.355651 40.636555 22.143985 0.000000 0.000000 0.000000 5.061860 -10.781053 43.260368 -10.011802 6.461604 30.732644 11.948532 7.215053 -27.582780 0.000000 0.000000 0.000000 -0.179397 -0.332838 14.590365 0.000000 0.000000 0.000000 33.538462 -7.806655 0.126840 -31.537957 7.235101 14.325828 19.862225 9.049649 -102.770190 0.000000 0.000000 0.000000 -40.245475 13.491313 -4.170117 18.570204 -3.799076 17.611225 -26.470331 -8.904821 -104.588462 
0.005133 0.908480 -0.007183 -7.040476 8.371498 60.797652 0.000000 0.000000 0.000000 7.543574 -9.948967 -58.451089 18.543954 -0.841626 -3.316506 10.960694 39.047536 22.390127 0.000000 0.000000 0.000000 -2.192578 13.273328 -91.986955 -10.798744 3.957824 14.211717 28.443093 40.125135 23.783921 0.000000 0.000000 0.000000 5.138612 -9.769236 39.782314 -10.015459 6.722318 32.115511 11.606114 6.404831 -28.163787 0.000000 0.000000 0.000000 0.697893 -0.763459 12.739644 0.000000 0.000000 0.000000 34.810017 -7.983204 0.030104 -25.420193 7.815987 19.946125 20.274752 9.459163 -103.773147 0.000000 0.000000 0.000000 -40.968919 12.179852 -2.385925 11.056265 -3.988221 21.137620 -26.626052 -7.953545 -105.066999 
0.008161 0.907887 -0.005741 -6.999711 9.031702 60.919962 0.000000 0.000000 0.000000 7.776256 -9.996321 -58.731334 18.298873 -0.881794 -3.047923 10.466872 38.319147 21.816741 0.000000 0.000000 0.000000 -1.747113 13.346817 -91.847301 -11.487835 4.149890 14.187501 27.030526 40.449665 21.811419 0.000000 0.000000 0.000000 5.833268 -10.762798 40.962506 -10.323820 7.060475 32.865916 10.857825 6.193159 -28.810387 0.000000 0.000000 0.000000 0.645058 -0.700418 12.117976 0.000000 0.000000 0.000000 33.291876 -7.682401 -0.009399 -29.078479 9.511278 22.154863 20.143113 9.657981 -102.516440 0.000000 0.000000 0.000000 -39.998352 12.809407 -3.163812 13.700442 -5.302346 25.288088 -26.989608 -10.255611 -104.013689 
0.010215 0.906075 -0.002212 -6.967492 9.192995 60.513363 0.000000 0.000000 0.000000 7.731431 -9.945397 -58.061112 17.959418 -0.854098 -3.106545 10.131656 37.821349 21.492828 0.000000 0.000000 0.000000 -1.627256 13.210107 -91.027354 -11.539709 4.123977 13.966801 26.482097 40.307322 21.180207 0.000000 0.000000 0.000000 5.497000 -11.017907 42.944211 -10.552549 7.018794 32.025313 10.780502 6.384064 -28.669078 0.000000 0.000000 0.000000 -0.066154 -0.306509 12.724778 0.000000 0.000000 0.000000 29.443987 -8.486668 -1.384919 -36.216062 9.744513 18.025393 19.380009 8.319117 -101.332990 0.000000 0.000000 0.000000 -36.404958 12.533963 -3.464776 24.002446 -5.820660 22.250161 -27.713840 -15.293557 -101.788420 
0.010004 0.904404 -0.000822 -7.562916 9.519514 60.456986 0.000000 0.000000 0.000000 8.544874 -9.615920 -57.968006 17.854925 -0.826987 -3.212604 10.417847 38.114629 21.399708 0.000000 0.000000 0.000000 -1.031897 13.722182 -91.057823 -11.680188 4.186064 14.069643 26.549566 40.131401 21.347849 0.000000 0.000000 0.000000 4.753008 -10.670878 43.893775 -10.485200 6.762820 30.947562 11.482509 7.125568 -28.694956 0.000000 0.000000 0.000000 -1.309723 0.399522 13.029993 0.000000 0.000000 0.000000 28.153832 -10.281752 -3.071869 -37.950600 7.783143 12.774666 17.765597 3.398288 -100.182760 0.000000 0.000000 0.000000 -34.375834 13.655069 -4.984077 30.709913 -4.831316 17.842409 -26.883078 -13.289077 -100.351474 
0.012873 0.902035 -0.003885 -8.097258 9.964725 60.408705 0.000000 0.000000 0.000000 8.734899 -9.573810 -58.048537 18.629024 -0.798983 -3.580125 10.226358 37.961636 21.585627 0.000000 0.000000 0.000000 -0.560614 14.102739 -91.303255 -11.987871 4.276072 14.063143 26.443938 39.873512 21.336106 0.000000 0.000000 0.000000 4.664611 -10.734680 44.174437 -10.670089 6.652118 29.896693 12.398286 7.386525 -27.637204 0.000000 0.000000 0.000000 -1.165576 0.336369 11.838011 0.000000 0.000000 0.000000 31.599531 -11.470708 -3.746279 -36.569411 7.528791 12.661786 18.931983 6.831594 -100.475466 0.000000 0.000000 0.000000 -38.575120 15.897852 -6.902912 24.336627 -4.670030 18.738992 -25.303512 -5.046724 -103.937434 
0.014534 0.901350 -0.006598 -8.249988 10.298920 59.959207 0.000000 0.000000 0.000000 8.877971 -9.483619 -57.478336 18.665873 -0.696380 -4.140508 9.897019 37.627297 21.714010 0.000000 0.000000 0.000000 -0.231977 14.177934 -90.881227 -12.246835 4.301621 13.789418 26.386594 39.524567 21.440566 0.000000 0.000000 0.000000 4.281402 -10.652400 44.834562 -10.670175 6.658658 30.010516 13.032407 7.637629 -27.570463 0.000000 0.000000 0.000000 -0.997812 0.231568 11.867422 0.000000 0.000000 0.000000 34.458361 -11.099055 -2.993115 -31.433894 8.094773 16.641749 20.531100 11.160318 -101.456980 0.000000 0.000000 0.000000 -41.091020 15.813742 -6.618411 14.732937 -4.848107 22.836048 -26.440539 -8.098945 -104.113819 
